# xmcd
#
# Track frame offsets: 
#        150
#        22406
#        44073
#        62402
#        79229
#        99946
#        117993
#        133344
#        153577
#        171200
#        185537
#        203664
#        222129
#        243610
#
# Disc length: 3580 seconds
#
# Revision: 0
# Processed by: cddbd v1.5.2PL0 Copyright (c) Steve Scherf et al.
# Submitted via: ExactAudioCopy v1.0b3
#
DISCID=ce0dfa0e
DTITLE=迷醉蓝调 - Fascinated The Blues
DYEAR=2013
DGENRE=Blues
TTITLE0=Mariah Carey - 玛丽亚·凯莉 - I Don't Wanna Cry - 我不想哭
TTITLE1=Fascinated The Blues - 迷醉蓝调 - Yes I Love You - 是的我爱你
TTITLE2=Westlife 西城男孩 - Soledad - 孤独
TTITLE3=Kelly Clarkson - 凯莉·克莱森 - Because Of You - 因为你
TTITLE4=Fascinated The Blues - 迷醉蓝调 - Unbreak My Heart - 别伤我的心
TTITLE5=Fascinated The Blues - 迷醉蓝调 - I Cry - 我哭了
TTITLE6=Shania Fuain - 仙妮亚·唐恩 - You've Got A Way - 你找到一种相处的方式
TTITLE7=Fascinated The Blues - 迷醉蓝调 - Hero - 英雄
TTITLE8=Enrique Iglesias - 安立奎·伊格莱西亚斯 - California Callin - 加州好莱坞
TTITLE9=Fascinated The Blues - 迷醉蓝调 - Apologize - 抱歉
TTITLE10=Westlife 西城男孩 - Fool Again - 痴心愚弄
TTITLE11=Dido - 蒂朵 - White Flag - 为爱投降
TTITLE12=Chloe - 克罗伊 - Vincent(Starry Starry Night) - 星夜
TTITLE13=Matthew Lien - 马修·连恩 - Bressanone - 布列瑟农
EXTD=
EXTT0=
EXTT1=
EXTT2=
EXTT3=
EXTT4=
EXTT5=
EXTT6=
EXTT7=
EXTT8=
EXTT9=
EXTT10=
EXTT11=
EXTT12=
EXTT13=
PLAYORDER=
